<?xml version="1.0" encoding="UTF-8" standalone="no"?>
<!-- Created with Inkscape (http://www.inkscape.org/) -->

<svg
   width="210mm"
   height="297mm"
   viewBox="0 0 210 297"
   version="1.1"
   id="svg1"
   sodipodi:docname="logoacademyHub.svg"
   inkscape:version="1.4.2 (f4327f4, 2025-05-13)"
   xmlns:inkscape="http://www.inkscape.org/namespaces/inkscape"
   xmlns:sodipodi="http://sodipodi.sourceforge.net/DTD/sodipodi-0.dtd"
   xmlns="http://www.w3.org/2000/svg"
   xmlns:svg="http://www.w3.org/2000/svg">
  <sodipodi:namedview
     id="namedview1"
     pagecolor="#ffffff"
     bordercolor="#000000"
     borderopacity="0.25"
     inkscape:showpageshadow="2"
     inkscape:pageopacity="0.0"
     inkscape:pagecheckerboard="0"
     inkscape:deskcolor="#d1d1d1"
     inkscape:document-units="mm"
     showgrid="true"
     inkscape:zoom="0.65477694"
     inkscape:cx="397.08179"
     inkscape:cy="561.25984"
     inkscape:window-width="1920"
     inkscape:window-height="974"
     inkscape:window-x="-11"
     inkscape:window-y="-11"
     inkscape:window-maximized="1"
     inkscape:current-layer="layer1">
    <inkscape:grid
       id="grid3"
       units="mm"
       originx="0"
       originy="0"
       spacingx="0.99999998"
       spacingy="1"
       empcolor="#0099e5"
       empopacity="0.30196078"
       color="#0099e5"
       opacity="0.14901961"
       empspacing="5"
       enabled="true"
       visible="true"
       dotted="false" />
  </sodipodi:namedview>
  <defs
     id="defs1">
    <rect
       x="174.94706"
       y="746.2248"
       width="272.13987"
       height="60.475526"
       id="rect7" />
  </defs>
  <g
     inkscape:label="Calque 1"
     inkscape:groupmode="layer"
     id="layer1">
    <path
       style="fill:#ffffff;fill-opacity:1;stroke:#000000;stroke-width:5;stroke-dasharray:none;stroke-opacity:1;paint-order:stroke fill markers;stroke-linecap:round"
       d="M 17.052653,199.24096 85.74653,43.265453 155.24857,199.24096"
       id="path3" />
    <circle
       style="fill:#ffffff;fill-opacity:1;stroke:#000000;stroke-width:5;stroke-dasharray:none;stroke-opacity:1;paint-order:stroke fill markers"
       id="path7"
       cx="86.575844"
       cy="138.00703"
       r="25.715597" />
    <g
       id="text7"
       style="white-space:pre;fill:#0a0a0a;stroke:#ffffff;stroke-width:18.2336;paint-order:stroke fill markers"
       transform="matrix(1.0339167,0,0,1.0759077,-134.95896,-607.45025)"
       aria-label="AcademyHub  ">
      <path
         style="font-family:Verdana;-inkscape-font-specification:Verdana"
         d="m 182.99805,757.17257 h -1.23633 l -0.85547,-2.43164 h -3.77344 l -0.85547,2.43164 h -1.17773 l 3.17578,-8.72461 h 1.54688 z m -2.44922,-3.42773 -1.5293,-4.2832 -1.53516,4.2832 z m 8.52539,3.01758 q -0.55078,0.26367 -1.04883,0.41015 -0.49219,0.14649 -1.04883,0.14649 -0.70898,0 -1.30078,-0.20508 -0.5918,-0.21094 -1.01367,-0.63281 -0.42774,-0.42188 -0.66211,-1.06641 -0.23438,-0.64453 -0.23438,-1.50586 0,-1.60547 0.87891,-2.51953 0.88477,-0.91406 2.33203,-0.91406 0.5625,0 1.10156,0.1582 0.54493,0.1582 0.9961,0.38672 v 1.22461 h -0.0586 q -0.5039,-0.39258 -1.04296,-0.60352 -0.53321,-0.21093 -1.04297,-0.21093 -0.9375,0 -1.48242,0.63281 -0.53907,0.62695 -0.53907,1.8457 0,1.1836 0.52735,1.82227 0.5332,0.63281 1.49414,0.63281 0.33398,0 0.67968,-0.0879 0.34571,-0.0879 0.6211,-0.22852 0.24023,-0.12304 0.45117,-0.25781 0.21094,-0.14062 0.33398,-0.24023 h 0.0586 z m 6.49805,0.41015 h -1.09571 v -0.69726 q -0.14648,0.0996 -0.39844,0.28125 -0.24609,0.17578 -0.48046,0.28125 -0.27539,0.13476 -0.63282,0.22265 -0.35742,0.0937 -0.83789,0.0937 -0.88476,0 -1.5,-0.58593 -0.61523,-0.58594 -0.61523,-1.49414 0,-0.74414 0.3164,-1.20118 0.32227,-0.46289 0.91407,-0.72656 0.59765,-0.26367 1.43554,-0.35742 0.83789,-0.0937 1.79883,-0.14063 v -0.16992 q 0,-0.375 -0.13476,-0.62109 -0.12891,-0.24609 -0.375,-0.38672 -0.23438,-0.13477 -0.5625,-0.18164 -0.32813,-0.0469 -0.68555,-0.0469 -0.43359,0 -0.9668,0.11719 -0.5332,0.11133 -1.10156,0.32813 h -0.0586 v -1.11914 q 0.32226,-0.0879 0.93164,-0.19336 0.60937,-0.10547 1.20117,-0.10547 0.69141,0 1.20117,0.11719 0.51563,0.11132 0.89063,0.38671 0.36914,0.26954 0.5625,0.69727 0.19336,0.42773 0.19336,1.06055 z m -1.09571,-1.61132 v -1.82227 q -0.5039,0.0293 -1.18945,0.0879 -0.67969,0.0586 -1.07813,0.16992 -0.47461,0.13477 -0.76757,0.42188 -0.29297,0.28125 -0.29297,0.77929 0,0.5625 0.33984,0.84961 0.33984,0.28125 1.03711,0.28125 0.58008,0 1.06055,-0.22265 0.48047,-0.22852 0.89062,-0.54492 z m 8.52539,1.61132 h -1.10156 v -0.68554 q -0.47461,0.41015 -0.99023,0.63867 -0.51563,0.22851 -1.11914,0.22851 -1.17188,0 -1.86329,-0.90234 -0.68554,-0.90234 -0.68554,-2.50195 0,-0.83203 0.23437,-1.48242 0.24024,-0.6504 0.64453,-1.10743 0.39844,-0.44531 0.92578,-0.67968 0.53321,-0.23438 1.10157,-0.23438 0.51562,0 0.91406,0.11133 0.39844,0.10547 0.83789,0.33398 v -2.83593 h 1.10156 z m -1.10156,-1.61132 v -3.75586 q -0.44531,-0.19922 -0.79687,-0.27539 -0.35157,-0.0762 -0.76758,-0.0762 -0.92578,0 -1.44141,0.64453 -0.51562,0.64454 -0.51562,1.82813 0,1.16602 0.39843,1.77539 0.39844,0.60352 1.27735,0.60352 0.46875,0 0.94922,-0.20508 0.48046,-0.21094 0.89648,-0.53906 z m 8.74805,-1.54688 h -4.82227 q 0,0.60352 0.18164,1.05469 0.18164,0.44531 0.49805,0.73242 0.30469,0.28125 0.7207,0.42187 0.42188,0.14063 0.92578,0.14063 0.66797,0 1.3418,-0.26367 0.67969,-0.26953 0.9668,-0.52735 h 0.0586 v 1.20118 q -0.55664,0.23437 -1.13672,0.39257 -0.58008,0.15821 -1.21875,0.15821 -1.6289,0 -2.54297,-0.87891 -0.91406,-0.88476 -0.91406,-2.50781 0,-1.60547 0.87305,-2.54883 0.8789,-0.94336 2.30859,-0.94336 1.32422,0 2.03906,0.77344 0.72071,0.77344 0.72071,2.19726 z m -1.07227,-0.84375 q -0.006,-0.86719 -0.43945,-1.3418 -0.42774,-0.47461 -1.30664,-0.47461 -0.88477,0 -1.41211,0.52149 -0.52149,0.52148 -0.5918,1.29492 z m 12.29297,4.00195 h -1.10156 v -3.72656 q 0,-0.42187 -0.041,-0.81445 -0.0352,-0.39258 -0.1582,-0.62696 -0.13477,-0.25195 -0.38672,-0.38085 -0.25195,-0.12891 -0.72656,-0.12891 -0.46289,0 -0.92578,0.23437 -0.46289,0.22852 -0.92578,0.58594 0.0176,0.13477 0.0293,0.31641 0.0117,0.17578 0.0117,0.35156 v 4.18945 h -1.10156 v -3.72656 q 0,-0.43359 -0.041,-0.82031 -0.0351,-0.39258 -0.1582,-0.62695 -0.13477,-0.25196 -0.38672,-0.375 -0.25195,-0.12891 -0.72656,-0.12891 -0.45117,0 -0.9082,0.22266 -0.45118,0.22265 -0.90235,0.56835 v 4.88672 h -1.10156 v -6.54492 h 1.10156 v 0.72656 q 0.51563,-0.42773 1.02539,-0.66796 0.51563,-0.24024 1.09571,-0.24024 0.66796,0 1.13085,0.28125 0.46875,0.28125 0.69727,0.7793 0.66797,-0.5625 1.21875,-0.8086 0.55078,-0.25195 1.17773,-0.25195 1.07813,0 1.5879,0.65625 0.51562,0.65039 0.51562,1.82227 z m 7.66406,-6.54492 -3.82031,8.95899 h -1.17773 l 1.21875,-2.73047 -2.60743,-6.22852 h 1.19532 l 2.00976,4.85156 2.02735,-4.85156 z"
         id="path15" />
      <path
         style="font-weight:bold;font-family:Verdana;-inkscape-font-specification:'Verdana Bold'"
         d="m 238.82617,757.17257 h -2.25 v -3.84375 h -3.32226 v 3.84375 h -2.25 v -8.72461 h 2.25 v 3.19336 h 3.32226 v -3.19336 h 2.25 z m 8.66602,0 h -2.10938 v -0.72656 q -0.58594,0.44531 -1.07226,0.67969 -0.48633,0.22851 -1.16016,0.22851 -1.08984,0 -1.68164,-0.62695 -0.58594,-0.62695 -0.58594,-1.85156 v -4.2832 h 2.1211 v 3.26367 q 0,0.49804 0.0293,0.83203 0.0352,0.32812 0.15235,0.54492 0.11132,0.2168 0.33398,0.31641 0.22852,0.0996 0.63281,0.0996 0.26953,0 0.59766,-0.0996 0.32812,-0.0996 0.63281,-0.29297 v -4.66406 h 2.10938 z m 8.85937,-3.38086 q 0,1.55274 -0.86133,2.53125 -0.85546,0.97852 -2.13867,0.97852 -0.55078,0 -0.96679,-0.11719 -0.41602,-0.11719 -0.79102,-0.33984 l -0.0879,0.32812 h -2.02149 v -9.11718 h 2.10938 v 3.22265 q 0.48633,-0.38672 0.99023,-0.62695 0.50977,-0.24024 1.17188,-0.24024 1.24805,0 1.92187,0.90235 0.67383,0.89648 0.67383,2.47851 z m -2.17383,0.041 q 0,-0.87891 -0.29882,-1.35352 -0.29883,-0.47461 -1.06641,-0.47461 -0.29883,0 -0.61523,0.0937 -0.31641,0.0879 -0.60352,0.25782 v 3.30468 q 0.22852,0.082 0.43359,0.11133 0.20508,0.0293 0.49219,0.0293 0.83789,0 1.24805,-0.49219 0.41015,-0.49219 0.41015,-1.47656 z"
         id="path16" />
    </g>
  </g>
</svg>
